PathFileType	4	(X/Y/Z)	/Users/niels/Desktop/University/Third Semester/Perception and Action/Exam/Gymnastics Motion Tracking/Code for Gym Tracking/Analyzed Data/Webcam_Backflip/id13_2_trajectory_Sports2D/id13_2_trajectory_Sports2D_px_person00.trc
DataRate	CameraRate	NumFrames	NumMarkers	Units	OrigDataRate	OrigDataStartFrame	OrigNumFrames
29.714285714285715	29.714285714285715	10	22	m	29.714285714285715	39	105
Frame#	Time	Hip			RHip			RKnee			RAnkle			RBigToe			RSmallToe			RHeel			LHip			LKnee			LAnkle			LBigToe			LSmallToe			LHeel			Neck			Head			Nose			RShoulder			RElbow			RWrist			LShoulder			LElbow			LWrist		
		X1	Y1	Z1	X2	Y2	Z2	X3	Y3	Z3	X4	Y4	Z4	X5	Y5	Z5	X6	Y6	Z6	X7	Y7	Z7	X8	Y8	Z8	X9	Y9	Z9	X10	Y10	Z10	X11	Y11	Z11	X12	Y12	Z12	X13	Y13	Z13	X14	Y14	Z14	X15	Y15	Z15	X16	Y16	Z16	X17	Y17	Z17	X18	Y18	Z18	X19	Y19	Z19	X20	Y20	Z20	X21	Y21	Z21	X22	Y22	Z22
39	1.3125	0.9383692165582119	-0.6343056637154736	0.0	0.9127306967304583	-0.6361003362097912	0.0	0.893993055798388	-0.857741406833172	0.0	0.7466874459009415	-1.03572664473664	0.0	0.7994695778553076	-1.0874384198026819	0.0	0.7781527360453014	-1.0872646899776806	0.0	0.720114991115807	-1.043772759979969	0.0	0.9696762272848823	-0.6439497362162174	0.0	0.9565662064382621	-0.8646855310399247	0.0	0.9282399194268512	-1.059380731337231	0.0	0.9769757688423826	-1.1010773554055449	0.0	0.9668017444658193	-1.0852095200487066	0.0	0.8660920344636116	-1.0674450643007023	0.0	0.9837937951747112	-0.3266023927789554	0.0	1.0376069868985662	-0.1997072865752072	0.0	1.03053503739489	-0.27617911990257604	0.0	0.9284709157573929	-0.35697388264848007	0.0	0.9153824209959972	-0.49935146548160575	0.0	1.0297786587887814	-0.6059262787295246	0.0	0.9914301158584501	-0.3818131903677548	0.0	0.9574105594252742	-0.5102773352813531	0.0	0.9787472741693504	-0.6241018080826982	0.0
40	1.346153846153846	0.9386521811782679	-0.6347213993569	0.0	0.9103893594070644	-0.6361644217933946	0.0	0.8724410339291935	-0.8539499907975514	0.0	0.7097142408320282	-1.0199596026609479	0.0	0.7539727985553442	-1.0834623592415127	0.0	0.7299493314580685	-1.0804499602427353	0.0	0.6805515299333491	-1.028712588908634	0.0	0.9703759101970632	-0.6459093134920929	0.0	0.9566292559305257	-0.8667868059209847	0.0	0.9294753064850078	-1.0605662802839155	0.0	0.9786068968662459	-1.1024409416223206	0.0	0.9685696796059885	-1.0878327733477549	0.0	0.8832104774796429	-1.0686797803722496	0.0	0.9857304425486088	-0.3266757599878949	0.0	1.0401364050091717	-0.19933934231201617	0.0	1.0331663891865377	-0.2756643327267808	0.0	0.9327437977780078	-0.357011912667723	0.0	0.9271343510475791	-0.5004776853958969	0.0	1.0446120433761237	-0.6045463805010345	0.0	0.9944862065331979	-0.38237382565768324	0.0	0.960015154310633	-0.5109989330968702	0.0	0.9765005810779063	-0.6224187614193074	0.0
41	1.3798076923076923	0.938827113178758	-0.635186845225616	0.0	0.9082713528120919	-0.6366949270446005	0.0	0.8540621612737718	-0.8502140580316798	0.0	0.6781834676976857	-1.0035066575869753	0.0	0.7141138370985366	-1.0797958193685913	0.0	0.6885198417643004	-1.0742125845602715	0.0	0.6465436375531262	-1.0117027817889237	0.0	0.9707393391448411	-0.6481321801733649	0.0	0.9568900635642132	-0.8687217869795966	0.0	0.9303514429743022	-1.0616598842013023	0.0	0.9792817823167714	-1.1038453052912984	0.0	0.9701586193201589	-1.091016691356274	0.0	0.8982463185071206	-1.0700578120442588	0.0	0.9871401708932264	-0.326682157406096	0.0	1.041918046105656	-0.19892935063168107	0.0	1.0351526160523403	-0.2751625647362914	0.0	0.9364091354134805	-0.35729002011309335	0.0	0.9373967464751326	-0.501956985912521	0.0	1.0571105971929364	-0.6037488534152327	0.0	0.9970505479364472	-0.38242076679856246	0.0	0.9630522759496435	-0.5119915694087808	0.0	0.9759823002694996	-0.621160724997046	0.0
42	1.4134615384615383	0.9388633491218036	-0.6356073082801504	0.0	0.9067534273432711	-0.6374558363132012	0.0	0.8398299134686189	-0.8471142597409769	0.0	0.6528266335609771	-0.9884540263642742	0.0	0.6814455191322069	-1.0767095048020465	0.0	0.6555000866470657	-1.0690097745067633	0.0	0.6190200013290469	-0.9948694191218671	0.0	0.9708113753794774	-0.6501891593653075	0.0	0.9575225768091009	-0.8702265581188546	0.0	0.9310474777842354	-1.062439238843682	0.0	0.9790430308578072	-1.104884938727449	0.0	0.9712400805423036	-1.0940825495455488	0.0	0.9083772416724416	-1.0712254778391492	0.0	0.9881077485213636	-0.3265016144014266	0.0	1.0427939851871428	-0.19840544712883412	0.0	1.0365752953953327	-0.2746929130968029	0.0	0.9393560389872323	-0.35783365768965886	0.0	0.9453884620631732	-0.5036407544794287	0.0	1.0666698451082777	-0.6037859611586363	0.0	0.9986327668311101	-0.38183479973299256	0.0	0.9659254555416938	-0.5130023316258084	0.0	0.9773557461029898	-0.6200096382610665	0.0
43	1.4471153846153846	0.9388469592162769	-0.6360108136166531	0.0	0.9060776952085137	-0.6382984707257207	0.0	0.8305876905442033	-0.8451017892481011	0.0	0.6346197312934247	-0.9767973424812222	0.0	0.6574288338619251	-1.0743504796926528	0.0	0.6320143875408294	-1.065068795992436	0.0	0.5990278155930014	-0.9809114293724709	0.0	0.9706884996366077	-0.6517861682499749	0.0	0.9585907893157831	-0.8711504478290883	0.0	0.9314783025425217	-1.062811381558986	0.0	0.9782129915712175	-1.1053637574561979	0.0	0.9714967221295353	-1.0964890814856563	0.0	0.9135136871118675	-1.0719042641969054	0.0	0.9886125780175959	-0.32610192746276284	0.0	1.0427460960056025	-0.1976459247578326	0.0	1.0374344398887538	-0.2742558963146353	0.0	0.9414984282431541	-0.35853969136289815	0.0	0.9503648277138602	-0.5054140764486187	0.0	1.0726841186968163	-0.6049502218372956	0.0	0.9989613076415652	-0.3806857584856142	0.0	0.9680483417514464	-0.5139133778643356	0.0	0.9800213180257165	-0.6191434547408721	0.0
44	1.4807692307692306	0.9389525738597689	-0.6364656738152207	0.0	0.9064201896154529	-0.6390885672279201	0.0	0.8270354194244335	-0.8445013399953543	0.0	0.6249899571355717	-0.9702448134282541	0.0	0.6435722140076681	-1.0731620303270324	0.0	0.6190279190255232	-1.0629624815514416	0.0	0.5879964306323326	-0.9724598862378935	0.0	0.9704904709146424	-0.6526335739085027	0.0	0.9598956552185757	-0.8713812057896874	0.0	0.9311123894146707	-1.0627986327303112	0.0	0.9766747614297332	-1.1054677005791953	0.0	0.9704830061964673	-1.0980634028567309	0.0	0.9144228096713786	-1.0719834066874703	0.0	0.988539090005431	-0.325549654197295	0.0	1.0419359922106044	-0.19658007121707025	0.0	1.0376143308717214	-0.2739060537658704	0.0	0.9427943972758415	-0.3592519992966792	0.0	0.9516883431522389	-0.5072086216068945	0.0	1.074434680774299	-0.6074498593011105	0.0	0.9979903675248506	-0.3791120218699508	0.0	0.9688720971252036	-0.5146155509390258	0.0	0.982882216332535	-0.6190007900294697	0.0
45	1.5144230769230769	0.9393703735530212	-0.6370319532828885	0.0	0.9078998248700046	-0.6396798213791489	0.0	0.8296896545838567	-0.8454682610450706	0.0	0.625749574607985	-0.9700184554562434	0.0	0.6412769511468285	-1.0737231541266041	0.0	0.6174010958686773	-1.0634737329569572	0.0	0.5877953969376059	-0.9713851779517716	0.0	0.9703187059170861	-0.6524686199527927	0.0	0.9610240913431408	-0.8708662146428306	0.0	0.928899072283995	-1.0624585740743029	0.0	0.9736469227475713	-1.1054432360912192	0.0	0.967518800260688	-1.098798721410608	0.0	0.911587532248433	-1.0714595664523674	0.0	0.9877713636371365	-0.32495536261132196	0.0	1.0405944787007086	-0.19522583810634148	0.0	1.0369416192215373	-0.27372655562828574	0.0	0.9432259910188063	-0.35989910750594756	0.0	0.9488815285463452	-0.5090224362129313	0.0	1.0710699475210947	-0.611309448744881	0.0	0.9958516720995971	-0.3772445938624562	0.0	0.9681996567135049	-0.5150637344725472	0.0	0.9850336460726182	-0.6199180483175574	0.0
46	1.548076923076923	0.9401982943131345	-0.6378015592236835	0.0	0.9105072643116963	-0.6400975278660958	0.0	0.8387983109061233	-0.848025158959477	0.0	0.6387130447444022	-0.9766298412203103	0.0	0.6515316340711469	-1.0763266796405762	0.0	0.6277645836972797	-1.0670229640545779	0.0	0.6005075349254737	-0.9782572510474868	0.0	0.9701896601987998	-0.6513300534972821	0.0	0.961518995023129	-0.8698051372891794	0.0	0.9234472662330111	-1.0618586020168015	0.0	0.9680390177049399	-1.1053969872418457	0.0	0.9618868813266507	-1.0987198445830044	0.0	0.9048239523968497	-1.0704098336548264	0.0	0.9862704409514959	-0.32445637760287	0.0	1.0388626364010471	-0.19369449395251118	0.0	1.0353232268634485	-0.27377898677311613	0.0	0.942734883079405	-0.3605876673682426	0.0	0.941733655449731	-0.5109110413864688	0.0	1.0617382537336628	-0.6164133887483524	0.0	0.9928193502034494	-0.37526663530524157	0.0	0.9663780930167516	-0.5153942758839903	0.0	0.9864218657305847	-0.6218458927274836	0.0
47	1.5817307692307692	0.941438760436059	-0.6388747044172367	0.0	0.9140819990163211	-0.6405955302178789	0.0	0.8542132180240963	-0.8520830447398011	0.0	0.6651456321777522	-0.9895941925267434	0.0	0.6746993746726556	-1.0808096268359533	0.0	0.6504099213072648	-1.0733855429212256	0.0	0.6278647411502255	-0.9920228677856574	0.0	0.9701415535215079	-0.6496528392602595	0.0	0.9611021177117403	-0.8686741836660239	0.0	0.913582158821149	-1.0611000188283468	0.0	0.9591326884864703	-1.1054509930270386	0.0	0.9533365293680545	-1.0979841746754695	0.0	0.8936697557270228	-1.0690283434584074	0.0	0.9840677573228213	-0.3242067219673264	0.0	1.03673011656336	-0.19221742619124044	0.0	1.0328168410857035	-0.2740918626850991	0.0	0.9411532542226142	-0.36153260361361794	0.0	0.9305079444662394	-0.512935474695936	0.0	1.0458600903643873	-0.6226302719277749	0.0	0.9893167420895068	-0.37345579214138824	0.0	0.9642803156244139	-0.5159289140868758	0.0	0.9880230337077532	-0.6242647789058571	0.0
48	1.6153846153846154	0.9431002775679755	-0.6402186412941266	0.0	0.9183597325022126	-0.6414334693523684	0.0	0.875299120219009	-0.8572994632026919	0.0	0.704943783171381	-1.007229969595593	0.0	0.7105543669952646	-1.0866667121688358	0.0	0.6852736628437456	-1.081796409425147	0.0	0.6701492200117166	-1.0101513127895867	0.0	0.9704135415617455	-0.647996031528317	0.0	0.9598967017505534	-0.8679779137612212	0.0	0.8994157523381514	-1.0603365132326679	0.0	0.9475591692228317	-1.1059209574827589	0.0	0.9429427391055629	-1.0969275478129223	0.0	0.8785600644859465	-1.0676158234222193	0.0	0.9812502768641572	-0.32433729199226224	0.0	1.034067492209917	-0.19113190675194547	0.0	1.029582076824611	-0.2746639165845077	0.0	0.9382395809627785	-0.36287392787242156	0.0	0.916092549104771	-0.5150719102130022	0.0	1.0234630682342043	-0.6298579909225934	0.0	0.985931957329997	-0.3721081087239483	0.0	0.9631314519331732	-0.5170249304618417	0.0	0.9914962224100351	-0.6263047985505811	0.0
